<svg width="290" height="101" viewBox="0 0 290 101" fill="none" xmlns="http://www.w3.org/2000/svg">
<path d="M35.2953 68.6625C35.1632 70.9446 35.9299 73.1435 37.4545 74.8484C38.9819 76.5587 41.0791 77.5732 43.3666 77.7024C43.4558 77.7033 43.5372 77.7152 43.6211 77.7189C45.4581 77.7708 47.229 77.2291 48.7194 76.1929C48.8954 76.073 49.0658 75.9425 49.228 75.8094C49.337 75.718 49.4542 75.6291 49.5632 75.5376L58.4308 67.6321L58.9088 67.2032L63.5111 63.0969L64.8203 61.9238C65.2797 61.5116 65.5928 60.9509 65.6533 60.3386L65.6477 60.3279C65.6598 60.2601 65.6748 60.1976 65.6762 60.1354L66.5424 29.0847C66.5926 27.2964 65.1805 25.8055 63.3976 25.7526L52.7355 25.4638C50.9418 25.4165 49.4563 26.8258 49.4062 28.6141L48.7403 52.3681C48.7203 52.9796 48.448 53.553 47.9993 53.9596L38.4918 62.4406L38.144 62.7532C38.0961 62.792 38.0645 62.8359 38.022 62.872C36.3925 64.3842 35.4202 66.4319 35.2953 68.6625ZM57.6747 62.7641C57.793 58.6112 61.0945 55.2912 65.1705 55.0812L65.0298 60.1269L65.0354 60.1376C65.0163 60.6598 64.7368 61.1414 64.341 61.4929L63.1752 62.536L62.3255 63.2968L58.5757 66.6476C57.9681 65.4918 57.6382 64.1628 57.6747 62.7641ZM38.8939 62.9326L48.6856 54.1998C49.1053 53.8289 49.346 53.2995 49.3643 52.7367L50.0391 28.6228C50.0775 27.189 51.274 26.0614 52.7079 26.0998L52.9297 26.1061L52.7059 34.1116L53.2876 34.1268L53.5114 26.1213L55.5134 26.1752L55.2896 34.1807L55.8713 34.1959L56.095 26.1905L58.07 26.2449L57.8462 34.2504L58.4279 34.2656L58.6517 26.2601L60.7593 26.32L60.5355 34.3255L61.1171 34.3407L61.3409 26.3352L63.3781 26.3911L63.1571 34.4019L63.7388 34.4171L63.9614 26.4874C65.1004 26.7833 65.9358 27.8397 65.8986 29.0681L65.1925 54.4345C60.7649 54.6381 57.1634 58.2319 57.0387 62.7365C56.992 64.2976 57.3872 65.7768 58.0921 67.0657L49.1262 75.0571C49.0279 75.1429 48.924 75.218 48.8257 75.3039L38.8936 62.9191L38.8939 62.9326ZM35.9313 68.6901C36.0466 66.649 36.9357 64.7679 38.4241 63.364L48.3198 75.6927C46.8717 76.6793 45.1619 77.1684 43.3995 77.0636C41.2852 76.939 39.3411 76.0079 37.9299 74.4277C36.516 72.8423 35.8066 70.8044 35.9313 68.6901Z" fill="#1293CD"/>
<path d="M97.7769 68.6491C97.6449 70.9312 98.4116 73.1301 99.9361 74.835C101.463 76.5453 103.561 77.5599 105.848 77.6891C105.937 77.69 106.019 77.7018 106.103 77.7055C108.3 77.7663 110.401 76.9962 112.039 75.5271L112.478 75.1396L112.95 74.7136L125.985 63.0946L127.294 61.9215C127.753 61.5092 128.069 60.9539 128.127 60.3362C128.131 60.2659 128.146 60.2034 128.147 60.1411L129.014 29.0905C129.021 28.8064 128.978 28.5288 128.921 28.265C128.587 26.863 127.368 25.8036 125.869 25.7583L115.209 25.4615C113.705 25.4191 112.416 26.4106 112.015 27.7897C111.947 28.0506 111.885 28.3223 111.877 28.6063L111.2 52.8852C111.195 53.1611 111.068 53.426 110.863 53.6086L101.736 61.7466L101.26 62.1672L100.62 62.7427C98.9125 64.2619 97.8926 66.362 97.7662 68.6548L97.7769 68.6491ZM128.255 28.2326L112.683 27.8004C113.054 26.7789 114.04 26.0558 115.19 26.0865L125.857 26.3859C127.002 26.4194 127.939 27.1899 128.255 28.2326ZM128.25 33.8217L112.393 33.3818L112.521 28.7663L128.378 29.2062L128.25 33.8217ZM128.102 39.0217L112.245 38.5818L112.362 34.3477L128.218 34.7876L128.102 39.0217ZM127.959 44.2188L112.102 43.7789L112.219 39.5449L128.075 39.9848L127.959 44.2188ZM127.792 50.1249L111.936 49.685L112.076 44.7421L127.932 45.182L127.792 50.1249ZM102.164 62.2245L111.175 54.189C111.595 53.8181 111.836 53.2887 111.854 52.7259L111.912 50.64L127.768 51.0799L127.514 60.1189C127.5 60.6383 127.218 61.1281 126.825 61.4713L125.662 62.5198L124.812 63.2807L112.538 74.2272L102.164 62.2245ZM98.4157 68.6821C98.5296 66.5734 99.4715 64.6236 101.052 63.2125L101.686 62.6399L112.057 74.6506L111.613 75.0544C110.033 76.4656 107.99 77.1777 105.881 77.0503C103.767 76.9257 101.823 75.9945 100.412 74.4144C98.9976 72.8289 98.2883 70.7911 98.4129 68.6767L98.4157 68.6821Z" fill="#47A382"/>
<path d="M160.238 68.6576C160.106 70.9397 160.873 73.1387 162.397 74.8436C163.924 76.5538 166.022 77.5684 168.309 77.6976C168.398 77.6985 168.48 77.7104 168.564 77.7141C170.517 77.7662 172.397 77.1602 173.95 75.9821C174.118 75.8597 174.285 75.7238 174.447 75.5772C174.466 75.5606 174.484 75.544 174.506 75.5328L184.558 66.5675L185.03 66.1415L188.457 63.0975L189.758 61.9218C190.217 61.5096 190.538 60.9514 190.591 60.3366L190.596 60.3338C190.603 60.2687 190.618 60.2063 190.619 60.144L191.485 29.0934C191.535 27.3051 190.123 25.8142 188.34 25.7612L177.681 25.4644C175.887 25.417 174.399 26.8209 174.352 28.6146L173.665 53.329L163.947 61.9954L163.469 62.4242L163.098 62.7563C161.39 64.2755 160.37 66.3755 160.244 68.6683L160.238 68.6576ZM190.794 30.8839L184.081 26.7645L183.245 26.2543L182.379 26.7099L174.927 30.7363L174.984 28.6233C175.023 27.1895 176.219 26.0619 177.653 26.1003L188.321 26.3998C189.749 26.441 190.885 27.6401 190.847 29.0739L190.794 30.8839ZM190.763 31.8769L183.815 35.6388L183.168 35.9927L182.964 36.0996L182.773 35.9818L182.146 35.5944L175.201 31.3093L182.364 27.4484L183.017 27.1053L183.228 26.9874L183.439 27.1156L184.068 27.4948L190.782 31.6142L190.777 31.8766L190.763 31.8769ZM182.126 36.3357L182.618 36.6366L182.099 36.9094L174.651 40.9411L174.905 31.8751L182.134 36.3382L182.126 36.3357ZM190.507 41.0809L183.793 36.9615L183.289 36.6527L183.798 36.3855L190.743 32.6182L190.507 41.0809ZM190.479 42.0792L183.528 45.8493L182.881 46.2032L182.683 46.3072L182.488 46.1841L181.861 45.7967L174.914 41.5198L182.074 37.6535L182.727 37.3104L182.938 37.1925L183.149 37.3207L183.776 37.7081L190.49 41.8275L190.481 42.0846L190.479 42.0792ZM183.209 61.2736C183.316 57.5157 186.395 54.5382 190.134 54.5189L189.975 60.1274C189.956 60.6496 189.679 61.1366 189.286 61.4799L188.12 62.523L187.271 63.2838L184.615 65.6497C183.7 64.4299 183.167 62.9077 183.214 61.2708L183.209 61.2736ZM164.325 62.4933L173.636 54.1975C174.056 53.8266 174.297 53.2972 174.315 52.7344L174.612 42.0749L181.841 46.538L182.663 47.0485L183.513 46.5878L190.461 42.8259L190.154 53.8939C186.069 53.904 182.69 57.1553 182.576 61.2649C182.524 63.0749 183.117 64.75 184.142 66.0893L174.08 75.0736C174.08 75.0736 174.069 75.0793 174.059 75.0849L164.328 62.4987L164.325 62.4933ZM160.877 68.6906C160.991 66.5819 161.932 64.6322 163.513 63.221L163.855 62.9112L173.561 75.4763C172.059 76.6073 170.234 77.1636 168.345 77.0642C166.231 76.9395 164.287 76.0084 162.875 74.4282C161.461 72.8428 160.752 70.8049 160.877 68.6906Z" fill="#F7DD74"/>
<path d="M250.823 25.7534L240.164 25.4565C238.376 25.4064 236.885 26.8184 236.835 28.6067L236.156 52.9073C236.15 53.1697 236.031 53.4236 235.834 53.5952L226.29 62.1094L225.758 62.5799L225.572 62.7459C225.493 62.8151 225.419 62.895 225.342 62.9696C225.331 62.9887 225.307 63.0082 225.294 63.0219C223.756 64.5269 222.834 66.5006 222.718 68.658C222.586 70.9401 223.353 73.139 224.878 74.8439C226.405 76.5541 228.502 77.5687 230.79 77.6979C230.879 77.6988 230.96 77.7107 231.044 77.7144C232.846 77.7642 234.577 77.2504 236.044 76.2607C236.135 76.1994 236.233 76.1406 236.327 76.0711C236.407 76.0153 236.481 75.949 236.561 75.8797C236.707 75.7686 236.851 75.6656 236.984 75.5412L237.305 75.2562L246.587 66.9826L247.06 66.5566L250.929 63.1088L252.238 61.9357C252.698 61.5234 253.011 60.9627 253.071 60.3504C253.071 60.3504 253.071 60.3459 253.071 60.3369C253.078 60.2719 253.093 60.2094 253.094 60.1472L253.96 29.0965C254.011 27.3082 252.599 25.8173 250.816 25.7644L250.823 25.7534ZM230.828 77.0563C228.714 76.9317 226.77 76.0005 225.358 74.4204C223.944 72.8349 223.235 70.7971 223.36 68.6828C223.466 66.7149 224.308 64.8996 225.702 63.5112L235.647 75.7523C234.227 76.6897 232.552 77.1537 230.828 77.0563ZM252.464 60.1167C252.464 60.1167 252.464 60.1167 252.464 60.1302C252.45 60.6497 252.171 61.1312 251.775 61.4827L250.609 62.5258L249.759 63.2867L246.649 66.062C245.598 64.7504 244.991 63.0755 245.041 61.2736C245.153 57.2263 248.546 54.0153 252.593 54.1276L252.634 54.1268L252.464 60.1167ZM252.648 53.491L252.607 53.4919C248.205 53.3678 244.523 56.847 244.397 61.257C244.342 63.232 245.009 65.0598 246.163 66.4883L236.892 74.7563L236.552 75.0579C236.419 75.1688 236.292 75.2768 236.153 75.377L226.155 63.0612L226.691 62.5879L236.111 54.1871C236.531 53.8163 236.772 53.2868 236.79 52.724L237.222 37.2677L253.078 37.7076L252.637 53.4832L252.648 53.491ZM253.153 37.1355L237.244 36.648L237.292 35.141L253.201 35.6284L253.153 37.1355ZM253.16 35.0966L237.304 34.6567L237.362 32.5978L253.219 33.0377L253.16 35.0966ZM253.296 32.444L237.387 31.9565L237.435 30.4494L253.344 30.9369L253.296 32.444ZM253.33 29.0661L253.289 30.3918L237.433 29.9519L237.47 28.6208C237.509 27.187 238.705 26.0594 240.139 26.0979L250.807 26.3973C252.235 26.4385 253.371 27.6376 253.333 29.0714L253.33 29.0661Z" fill="#E5B0C1"/>
</svg>
