<svg width="440" height="923" viewBox="0 0 440 923" fill="none" xmlns="http://www.w3.org/2000/svg">
<path d="M280.331 629.152C278.588 632.019 278.11 635.391 278.897 638.651C279.712 641.911 281.736 644.666 284.631 646.38C284.744 646.436 284.856 646.521 284.941 646.577C287.442 647.982 290.309 648.46 293.12 648.01C293.43 647.954 293.739 647.898 294.048 647.841C294.076 647.841 294.132 647.841 294.16 647.841L320.752 641.209L323.254 640.562C324.125 640.337 324.94 639.832 325.418 639.073C325.474 638.989 325.531 638.932 325.587 638.848L347.906 599.137C349.199 596.86 348.384 593.937 346.107 592.673L332.474 585.028C330.169 583.735 327.301 584.55 326.008 586.855L308.243 618.444L289.719 623.053L288.82 623.278L288.117 623.447C284.856 624.262 282.101 626.285 280.387 629.18L280.331 629.152ZM345.769 600.963L339.866 591.042L339.135 589.806H337.702L325.278 589.946L326.795 587.248C327.836 585.422 330.141 584.775 331.996 585.787L345.629 593.459C347.456 594.499 348.102 596.804 347.09 598.659L345.797 600.963H345.769ZM345.067 602.256L333.486 602.397H332.08L331.911 602.116L331.349 601.188L325.25 590.874L337.168 590.761H338.601L338.77 591.071L339.332 591.998L345.235 601.919L345.038 602.256H345.067ZM330.815 602.144L331.237 602.874H330.365L317.941 603.015L324.462 591.436L330.815 602.144ZM338.461 614.032L332.558 604.111L332.108 603.38H332.951L344.533 603.24L338.461 614.06V614.032ZM337.73 615.297L326.149 615.437H324.743L324.575 615.156L324.013 614.229L317.913 603.942L329.859 603.802H331.293L331.462 604.111L332.024 605.038L337.927 614.959L337.73 615.297ZM315.186 635.251C317.885 630.445 323.928 628.674 328.791 631.204L324.772 638.37C324.378 639.045 323.703 639.466 322.945 639.663L320.724 640.225L319.094 640.647L314.034 641.911C313.668 639.691 314.034 637.358 315.214 635.279L315.186 635.251ZM289.86 623.953L307.597 619.54C308.384 619.344 309.087 618.838 309.48 618.107L317.126 604.476L323.479 615.184L324.209 616.393H325.615L337.196 616.224L329.241 630.389C323.928 627.606 317.323 629.545 314.371 634.773C313.078 637.077 312.685 639.663 313.106 642.108L293.907 646.914C293.907 646.914 293.907 646.914 293.879 646.914L289.832 623.953H289.86ZM281.146 629.63C282.748 626.96 285.278 625.077 288.286 624.318L288.932 624.149L292.952 647.083C290.225 647.532 287.47 646.998 285.109 645.593C282.439 643.991 280.555 641.462 279.797 638.454C279.038 635.447 279.515 632.3 281.118 629.658L281.146 629.63Z" fill="#F7DD74"/>
<path d="M150.409 756.633C148.666 759.5 148.188 762.872 148.975 766.133C149.79 769.393 151.814 772.147 154.709 773.861C154.822 773.918 154.934 774.002 155.019 774.058C157.83 775.632 161.09 776.082 164.21 775.295L165.054 775.098L165.953 774.873L190.802 768.69L193.304 768.044C194.175 767.819 194.962 767.313 195.468 766.554C195.468 766.554 195.581 766.386 195.637 766.301L217.956 726.59C218.152 726.224 218.293 725.831 218.405 725.466C218.94 723.414 218.068 721.222 216.157 720.126L202.524 712.481C200.584 711.413 198.251 711.807 196.789 713.325C196.508 713.606 196.255 713.915 196.058 714.308L178.602 745.363C178.406 745.701 178.068 745.982 177.675 746.066L160.275 750.394L158.139 750.928C154.878 751.743 152.123 753.767 150.409 756.661V756.633ZM217.562 724.988L197.633 713.802C198.813 712.734 200.584 712.453 202.046 713.296L215.679 720.969C217.141 721.784 217.843 723.442 217.534 725.016L217.562 724.988ZM213.739 732.239L193.444 720.856L196.761 714.955L217.056 726.337L213.739 732.239ZM210.001 738.871L189.706 727.489L192.742 722.065L213.037 733.447L210.001 738.871ZM206.262 745.532L185.967 734.15L189.003 728.726L209.298 740.108L206.262 745.532ZM202.018 753.092L181.723 741.71L185.264 735.386L205.559 746.769L202.018 753.092ZM160.472 751.294L177.647 747.022C178.434 746.825 179.137 746.319 179.53 745.588L181.02 742.918L201.315 754.301L194.822 765.852C194.456 766.526 193.753 766.948 192.995 767.144L190.774 767.706L189.144 768.128L165.728 773.946L160.444 751.294L160.472 751.294ZM151.224 757.111C152.826 754.441 155.356 752.558 158.364 751.799L159.572 751.49L164.829 774.142L163.986 774.367C160.978 775.126 157.83 774.648 155.187 773.046C152.517 771.444 150.634 768.915 149.875 765.908C149.116 762.901 149.594 759.753 151.196 757.111H151.224Z" fill="#47A382"/>
<path d="M64.5062 585.787C62.7635 588.654 62.2856 592.026 63.0726 595.286C63.8878 598.546 65.9117 601.301 68.807 603.015C68.9194 603.071 69.0319 603.155 69.1162 603.212C71.4774 604.533 74.1197 605.038 76.762 604.701C77.0712 604.673 77.3804 604.617 77.6896 604.561C77.8864 604.504 78.1112 604.476 78.308 604.448L104.871 597.816L107.373 597.197C108.245 596.972 109.032 596.467 109.538 595.708C109.538 595.708 109.65 595.539 109.706 595.455L132.025 555.743C133.318 553.467 132.503 550.544 130.226 549.279L116.593 541.635C114.288 540.342 111.393 541.157 110.128 543.462L93.0654 573.843C92.6157 574.629 91.8848 575.192 91.0134 575.416L72.2082 580.11C72.2082 580.11 72.0396 580.166 71.9552 580.166C68.807 581.009 66.1366 583.005 64.45 585.815L64.5062 585.787ZM97.5629 593.375C100.543 588.063 107.092 586.012 112.545 588.513L108.919 594.977C108.554 595.651 107.851 596.101 107.092 596.27L104.871 596.832L103.241 597.254L96.0731 599.052C96.0731 597.141 96.551 595.174 97.5629 593.403V593.375ZM73.0796 580.784L91.7443 576.119C92.5314 575.922 93.2341 575.416 93.6276 574.686L110.943 543.855C111.983 542.028 114.288 541.382 116.143 542.394L116.424 542.562L110.662 552.792L111.393 553.214L117.155 542.984L119.713 544.417L113.951 554.647L114.682 555.069L120.444 544.839L122.974 546.272L117.211 556.502L117.942 556.924L123.705 546.694L126.403 548.211L120.641 558.441L121.372 558.863L127.134 548.633L129.748 550.094L123.986 560.324L124.717 560.746L130.423 550.6C131.716 551.753 132.053 553.692 131.182 555.266L112.939 587.698C107.064 584.944 99.9241 587.136 96.6915 592.897C95.5672 594.893 95.0612 597.085 95.0893 599.249L77.9988 603.493C77.802 603.549 77.6333 603.549 77.4366 603.605L72.9953 580.756L73.0796 580.784ZM65.2933 586.237C66.8393 583.679 69.2849 581.824 72.152 581.037L76.5933 603.802C74.0354 604.111 71.4774 603.577 69.2568 602.228C66.5864 600.626 64.703 598.097 63.9441 595.089C63.1851 592.082 63.6629 588.935 65.2652 586.293L65.2933 586.237Z" fill="#1293CD"/>
<path d="M383.773 473.707C382.03 476.573 381.552 479.946 382.34 483.206C383.155 486.466 385.178 489.22 388.074 490.935C388.186 490.991 388.299 491.075 388.383 491.132C391.194 492.705 394.455 493.155 397.575 492.368L398.418 492.171L399.318 491.947L424.166 485.764L426.668 485.117C427.539 484.892 428.326 484.386 428.832 483.628C428.832 483.628 428.945 483.459 429.001 483.375L451.32 443.663C451.517 443.298 451.657 442.904 451.77 442.539C452.304 440.487 451.432 438.295 449.521 437.199L435.888 429.555C433.948 428.487 431.615 428.88 430.154 430.398C429.872 430.679 429.62 430.988 429.423 431.382L411.967 462.437C411.77 462.774 411.433 463.055 411.039 463.14L393.639 467.468L391.503 468.002C388.242 468.817 385.488 470.84 383.773 473.735V473.707ZM450.898 442.061L430.969 430.876C432.149 429.808 433.92 429.527 435.382 430.37L449.015 438.042C450.477 438.857 451.179 440.516 450.87 442.089L450.898 442.061ZM447.076 449.312L426.781 437.93L430.097 432.028L450.392 443.41L447.076 449.312ZM443.337 455.945L423.042 444.563L426.078 439.138L446.373 450.521L443.337 455.945ZM439.626 462.606L419.332 451.223L422.367 445.799L442.662 457.181L439.626 462.606ZM435.382 470.166L415.087 458.783L418.629 452.46L438.924 463.842L435.382 470.166ZM393.836 468.367L411.011 464.095C411.798 463.898 412.501 463.392 412.895 462.662L414.384 459.992L434.679 471.374L428.186 482.925C427.821 483.6 427.118 484.021 426.359 484.218L424.138 484.78L422.508 485.201L399.093 491.019L393.808 468.367H393.836ZM384.56 474.185C386.162 471.515 388.692 469.632 391.7 468.873L392.909 468.564L398.165 491.216L397.322 491.441C394.314 492.199 391.166 491.722 388.524 490.12C385.853 488.518 383.97 485.988 383.211 482.981C382.452 479.974 382.93 476.826 384.532 474.185H384.56Z" fill="#47A382"/>
<path d="M279.571 451.195L265.938 443.523C263.662 442.23 260.738 443.045 259.473 445.349L242.017 476.433C241.82 476.77 241.511 477.023 241.118 477.107L221.919 481.913L221.554 481.998C221.413 482.026 221.244 482.082 221.104 482.138C221.076 482.138 221.048 482.138 221.02 482.166C218.012 483.066 215.454 485.005 213.824 487.731C212.081 490.597 211.603 493.97 212.39 497.23C213.205 500.49 215.229 503.244 218.124 504.959C218.237 505.015 218.349 505.099 218.433 505.156C220.738 506.448 223.325 506.954 225.911 506.673C226.079 506.673 226.248 506.645 226.417 506.617C226.557 506.617 226.698 506.561 226.866 506.533C227.119 506.476 227.372 506.448 227.653 506.392L228.272 506.252L246.88 501.614L256.747 499.169C257.618 498.944 258.405 498.439 258.911 497.68C258.911 497.68 259.023 497.539 259.08 497.455L281.399 457.743C282.692 455.467 281.876 452.544 279.6 451.279L279.571 451.195ZM218.602 504.116C215.932 502.514 214.048 499.984 213.289 496.977C212.53 493.97 213.008 490.822 214.611 488.18C216.1 485.707 218.433 483.909 221.188 483.065L225.742 505.746C223.268 505.999 220.767 505.465 218.602 504.144V504.116ZM258.236 496.893C257.871 497.567 257.168 497.989 256.409 498.186L254.189 498.748L252.558 499.169L246.627 500.659C246.149 498.242 246.515 495.656 247.808 493.352C250.731 488.18 257.309 486.326 262.481 489.22H262.537L258.236 496.921V496.893ZM263.015 488.433H262.959C257.337 485.258 250.169 487.253 246.993 492.874C245.559 495.403 245.194 498.242 245.728 500.884L228.047 505.296L227.4 505.465C227.147 505.521 226.923 505.577 226.67 505.605L222.088 482.813L223.1 482.56L241.062 478.091C241.849 477.894 242.551 477.388 242.945 476.658L254.048 456.9L274.343 468.283L263.015 488.462V488.433ZM274.821 467.552L254.498 456.057L255.594 454.118L275.917 465.613L274.821 467.552ZM276.226 464.91L255.931 453.528L257.421 450.886L277.716 462.268L276.226 464.91ZM278.222 461.566L257.899 450.071L258.995 448.132L279.318 459.626L278.222 461.566ZM280.555 457.181L279.6 458.868L259.305 447.485L260.26 445.771C261.3 443.944 263.605 443.298 265.461 444.31L279.094 451.982C280.921 453.022 281.567 455.327 280.555 457.181Z" fill="#E5B0C1"/>
<path d="M297.843 868.714C296.1 871.58 295.622 874.953 296.409 878.213C297.224 881.473 299.248 884.227 302.143 885.942C302.256 885.998 302.368 886.082 302.453 886.138C304.814 887.459 307.456 887.965 310.098 887.628C310.408 887.6 310.717 887.544 311.026 887.487C311.223 887.431 311.448 887.403 311.644 887.375L338.208 880.742L340.71 880.124C341.581 879.899 342.368 879.393 342.874 878.635C342.874 878.635 342.986 878.466 343.043 878.382L365.361 838.67C366.654 836.394 365.839 833.471 363.562 832.206L349.929 824.562C347.624 823.269 344.729 824.084 343.464 826.388L326.402 856.769C325.952 857.556 325.221 858.118 324.35 858.343L305.545 863.036C305.545 863.036 305.376 863.093 305.292 863.093C302.143 863.936 299.473 865.931 297.786 868.742L297.843 868.714ZM330.927 876.302C333.907 870.99 340.456 868.939 345.91 871.44L342.284 877.904C341.918 878.578 341.215 879.028 340.456 879.197L338.236 879.759L336.605 880.18L329.438 881.979C329.438 880.068 329.915 878.101 330.927 876.33V876.302ZM306.444 863.711L325.109 859.046C325.896 858.849 326.599 858.343 326.992 857.612L344.308 826.782C345.348 824.955 347.652 824.309 349.508 825.32L349.789 825.489L344.026 835.719L344.757 836.141L350.52 825.911L353.078 827.344L347.315 837.574L348.046 837.996L353.808 827.766L356.338 829.199L350.576 839.429L351.307 839.85L357.069 829.62L359.768 831.138L354.005 841.368L354.736 841.79L360.499 831.56L363.113 833.021L357.35 843.251L358.081 843.673L363.787 833.527C365.08 834.679 365.418 836.618 364.546 838.192L346.303 870.625C340.428 867.871 333.289 870.063 330.056 875.824C328.932 877.82 328.426 880.012 328.454 882.176L311.363 886.419C311.166 886.476 310.998 886.476 310.801 886.532L306.36 863.683L306.444 863.711ZM298.658 869.163C300.204 866.606 302.649 864.751 305.516 863.964L309.958 886.729C307.4 887.038 304.842 886.504 302.621 885.155C299.951 883.553 298.067 881.023 297.309 878.016C296.55 875.009 297.027 871.861 298.63 869.22L298.658 869.163Z" fill="#1293CD"/>
<path d="M150.409 152.372C148.666 155.239 148.188 158.611 148.975 161.871C149.79 165.131 151.814 167.885 154.709 169.6C154.822 169.656 154.934 169.74 155.019 169.797C157.83 171.37 161.09 171.82 164.21 171.033L165.054 170.836L165.953 170.612L190.802 164.429L193.304 163.782C194.175 163.557 194.962 163.052 195.468 162.293C195.468 162.293 195.581 162.124 195.637 162.04L217.956 122.328C218.152 121.963 218.293 121.57 218.405 121.204C218.94 119.153 218.068 116.96 216.157 115.864L202.524 108.22C200.584 107.152 198.251 107.545 196.789 109.063C196.508 109.344 196.255 109.653 196.058 110.047L178.602 141.102C178.406 141.439 178.068 141.72 177.675 141.805L160.275 146.133L158.139 146.667C154.878 147.482 152.123 149.505 150.409 152.4V152.372ZM217.562 120.726L197.633 109.541C198.813 108.473 200.584 108.192 202.046 109.035L215.679 116.708C217.141 117.523 217.843 119.181 217.534 120.755L217.562 120.726ZM213.739 127.977L193.444 116.595L196.761 110.693L217.056 122.075L213.739 127.977ZM210.001 134.61L189.706 123.228L192.742 117.804L213.037 129.186L210.001 134.61ZM206.262 141.271L185.967 129.888L189.003 124.464L209.298 135.847L206.262 141.271ZM202.018 148.831L181.723 137.448L185.264 131.125L205.559 142.507L202.018 148.831ZM160.472 147.032L177.647 142.76C178.434 142.563 179.137 142.058 179.53 141.327L181.02 138.657L201.315 150.039L194.822 161.59C194.456 162.265 193.753 162.686 192.995 162.883L190.774 163.445L189.144 163.867L165.728 169.684L160.444 147.032H160.472ZM151.224 152.85C152.826 150.18 155.356 148.297 158.364 147.538L159.572 147.229L164.829 169.881L163.986 170.106C160.978 170.865 157.83 170.387 155.187 168.785C152.517 167.183 150.634 164.654 149.875 161.646C149.116 158.639 149.594 155.491 151.196 152.85H151.224Z" fill="#47A382"/>
<path d="M-36.1946 487.736C-37.9374 490.603 -38.4152 493.975 -37.6282 497.235C-36.813 500.495 -34.7891 503.25 -31.8938 504.964C-31.7814 505.02 -31.669 505.105 -31.5846 505.161C-28.7737 506.735 -25.513 507.184 -22.3928 506.397L-21.5496 506.201L-20.6501 505.976L4.19869 499.793L6.70043 499.146C7.57182 498.922 8.35886 498.416 8.86483 497.657C8.86483 497.657 8.97726 497.488 9.03348 497.404L31.3524 457.693C31.5491 457.327 31.6897 456.934 31.8021 456.568C32.3362 454.517 31.4648 452.325 29.5534 451.229L15.9203 443.584C13.9808 442.516 11.6477 442.91 10.186 444.427C9.90488 444.708 9.65191 445.017 9.45515 445.411L-8.00083 476.466C-8.1976 476.803 -8.53492 477.085 -8.92845 477.169L-26.3282 481.497L-28.4645 482.031C-31.7252 482.846 -34.4799 484.869 -36.1946 487.764V487.736ZM30.9588 456.091L11.0293 444.905C12.2099 443.837 13.9808 443.556 15.4425 444.399L29.0755 452.072C30.5372 452.887 31.24 454.545 30.9307 456.119L30.9588 456.091ZM27.136 463.341L6.84095 451.959L10.1579 446.057L30.4529 457.44L27.136 463.341ZM23.3974 469.974L3.10239 458.592L6.13821 453.168L26.4332 464.55L23.3974 469.974ZM19.6589 476.635L-0.636131 465.253L2.39965 459.828L22.6947 471.211L19.6589 476.635ZM15.4143 484.195L-4.88068 472.813L-1.33887 466.489L18.9561 477.871L15.4143 484.195ZM-26.1033 482.396L-8.9284 478.124C-8.14134 477.928 -7.43856 477.422 -7.04503 476.691L-5.55524 474.021L14.7398 485.403L8.24646 496.954C7.88104 497.629 7.17832 498.05 6.41937 498.247L4.19874 498.809L2.56839 499.231L-20.8468 505.048L-26.1314 482.396H-26.1033ZM-35.3794 488.214C-33.7772 485.544 -31.2473 483.661 -28.2396 482.902L-27.0309 482.593L-21.7744 505.245L-22.6177 505.47C-25.6254 506.229 -28.7737 505.751 -31.416 504.149C-34.0864 502.547 -35.9697 500.018 -36.7287 497.01C-37.4876 494.003 -37.0097 490.856 -35.4075 488.214H-35.3794Z" fill="#47A382"/>
<path d="M411.821 337.405C410.078 340.272 409.601 343.644 410.388 346.904C411.203 350.164 413.227 352.919 416.122 354.633C416.234 354.689 416.347 354.774 416.431 354.83C418.933 356.235 421.8 356.713 424.611 356.263C424.92 356.207 425.229 356.151 425.539 356.094C425.567 356.094 425.623 356.094 425.651 356.094L452.243 349.462L454.744 348.815C455.616 348.591 456.431 348.085 456.909 347.326C456.965 347.242 457.021 347.185 457.077 347.101L479.396 307.39C480.689 305.113 479.874 302.19 477.597 300.926L463.964 293.281C461.659 291.988 458.792 292.803 457.499 295.108L439.734 326.697L421.21 331.306L420.31 331.531L419.608 331.7C416.347 332.515 413.592 334.538 411.878 337.433L411.821 337.405ZM477.26 309.216L471.357 299.296L470.626 298.059H469.193L456.768 298.199L458.286 295.501C459.326 293.675 461.631 293.028 463.486 294.04L477.12 301.712C478.947 302.752 479.593 305.057 478.581 306.912L477.288 309.216H477.26ZM476.557 310.509L464.976 310.65H463.571L463.402 310.369L462.84 309.441L456.74 299.127L468.659 299.015H470.092L470.261 299.324L470.823 300.251L476.726 310.172L476.529 310.509H476.557ZM462.278 310.397L462.699 311.128H461.828L449.404 311.268L455.925 299.689L462.278 310.397ZM469.923 322.285L464.02 312.364L463.571 311.633H464.414L475.995 311.493L469.923 322.313V322.285ZM469.221 323.55L457.64 323.69H456.234L456.066 323.409L455.503 322.482L449.404 312.195L461.35 312.055H462.784L462.952 312.364L463.515 313.292L469.418 323.212L469.221 323.55ZM446.677 343.504C449.375 338.698 455.419 336.927 460.282 339.457L456.262 346.623C455.869 347.298 455.194 347.719 454.435 347.916L452.215 348.478L450.584 348.9L445.525 350.164C445.159 347.944 445.524 345.612 446.705 343.532L446.677 343.504ZM421.322 332.206L439.059 327.793C439.846 327.597 440.549 327.091 440.943 326.36L448.588 312.729L454.941 323.437L455.672 324.646H457.077L468.659 324.477L460.704 338.642C455.391 335.859 448.785 337.799 445.834 343.026C444.541 345.331 444.147 347.916 444.569 350.361L425.37 355.167C425.37 355.167 425.37 355.167 425.342 355.167L421.294 332.206H421.322ZM412.636 337.883C414.239 335.213 416.769 333.33 419.776 332.571L420.423 332.402L424.442 355.336C421.716 355.785 418.961 355.251 416.6 353.846C413.929 352.244 412.046 349.715 411.287 346.708C410.528 343.7 411.006 340.553 412.608 337.911L412.636 337.883Z" fill="#F7DD74"/>
<path d="M297.843 264.424C296.1 267.291 295.622 270.663 296.409 273.923C297.224 277.183 299.248 279.938 302.143 281.652C302.256 281.708 302.368 281.793 302.453 281.849C304.814 283.17 307.456 283.676 310.098 283.338C310.408 283.31 310.717 283.254 311.026 283.198C311.223 283.142 311.448 283.113 311.644 283.085L338.208 276.453L340.71 275.834C341.581 275.61 342.368 275.104 342.874 274.345C342.874 274.345 342.986 274.176 343.043 274.092L365.362 234.381C366.655 232.104 365.839 229.181 363.562 227.917L349.929 220.272C347.625 218.979 344.729 219.794 343.464 222.099L326.402 252.48C325.952 253.267 325.221 253.829 324.35 254.054L305.545 258.747C305.545 258.747 305.376 258.803 305.292 258.803C302.143 259.646 299.473 261.642 297.786 264.452L297.843 264.424ZM330.927 272.04C333.907 266.729 340.457 264.677 345.91 267.178L342.284 273.642C341.918 274.317 341.215 274.766 340.457 274.935L338.236 275.497L336.606 275.919L329.438 277.717C329.438 275.806 329.916 273.839 330.927 272.068V272.04ZM306.444 259.45L325.109 254.784C325.896 254.588 326.599 254.082 326.992 253.351L344.308 222.52C345.348 220.694 347.653 220.047 349.508 221.059L349.789 221.228L344.026 231.458L344.757 231.879L350.52 221.649L353.078 223.083L347.315 233.313L348.046 233.734L353.809 223.504L356.338 224.937L350.576 235.167L351.307 235.589L357.069 225.359L359.768 226.877L354.005 237.107L354.736 237.528L360.499 227.298L363.113 228.76L357.35 238.99L358.081 239.411L363.787 229.266C365.08 230.418 365.418 232.357 364.546 233.931L346.303 266.363C340.428 263.609 333.289 265.801 330.056 271.563C328.932 273.558 328.426 275.75 328.454 277.914L311.363 282.158C311.167 282.214 310.998 282.214 310.801 282.27L306.36 259.422L306.444 259.45ZM298.658 264.902C300.204 262.344 302.649 260.489 305.517 259.703L309.958 282.467C307.4 282.776 304.842 282.242 302.621 280.893C299.951 279.291 298.068 276.762 297.309 273.755C296.55 270.748 297.028 267.6 298.63 264.958L298.658 264.902Z" fill="#1293CD"/>
<path d="M46.9941 307.817C45.2513 310.684 44.7734 314.056 45.5605 317.316C46.3757 320.577 48.3996 323.331 51.2949 325.045C51.4073 325.101 51.5197 325.186 51.6041 325.242C54.1058 326.647 56.9729 327.125 59.7839 326.675C60.0931 326.619 60.4023 326.563 60.7115 326.507C60.7396 326.507 60.7958 326.507 60.824 326.507L87.4155 319.874L89.9172 319.228C90.7886 319.003 91.6038 318.497 92.0816 317.738C92.1378 317.654 92.1941 317.598 92.2503 317.513L114.569 277.802C115.862 275.525 115.047 272.602 112.77 271.338L99.1371 263.693C96.8321 262.401 93.9649 263.216 92.6719 265.52L74.9068 297.109L56.3827 301.719L55.4831 301.943L54.7804 302.112C51.5197 302.927 48.765 304.951 47.0503 307.845L46.9941 307.817ZM112.433 279.629L106.53 269.708L105.799 268.471H104.365L91.9411 268.612L93.459 265.914C94.4991 264.087 96.804 263.44 98.6592 264.452L112.292 272.125C114.119 273.165 114.766 275.469 113.754 277.324L112.461 279.629H112.433ZM111.702 280.921L100.121 281.062H98.7155L98.5468 280.781L97.9846 279.853L91.8848 269.539L103.803 269.427H105.237L105.406 269.736L105.968 270.663L111.871 280.584L111.674 280.921H111.702ZM97.4505 280.809L97.8722 281.54H97.0008L84.5764 281.68L91.0978 270.101L97.4505 280.809ZM105.096 292.697L99.1933 282.776L98.7435 282.046H99.5868L111.168 281.905L105.096 292.725V292.697ZM104.365 293.962L92.7844 294.102H91.3789L91.2102 293.821L90.6481 292.894L84.5483 282.608L96.4948 282.467H97.9284L98.097 282.776L98.6592 283.704L104.562 293.625L104.365 293.962ZM81.8498 313.916C84.5483 309.11 90.5918 307.339 95.4547 309.869L91.4351 317.035C91.0416 317.71 90.3669 318.132 89.608 318.328L87.3874 318.89L85.757 319.312L80.6973 320.577C80.3319 318.356 80.6973 316.024 81.8779 313.944L81.8498 313.916ZM56.4951 302.618L74.2321 298.206C75.0192 298.009 75.7219 297.503 76.1154 296.772L83.7612 283.142L90.114 293.849L90.8448 295.058H92.2503L103.831 294.889L95.8764 309.054C90.5637 306.271 83.958 308.211 81.0065 313.438C79.7135 315.743 79.3199 318.328 79.7416 320.773L60.5428 325.579C60.5428 325.579 60.5429 325.579 60.5147 325.579L56.467 302.618H56.4951ZM47.7812 308.295C49.3834 305.625 51.9132 303.742 54.921 302.983L55.5675 302.815L59.5871 325.748C56.8605 326.197 54.1058 325.664 51.7446 324.258C49.0742 322.656 47.1908 320.127 46.4319 317.12C45.6729 314.113 46.1508 310.965 47.753 308.323L47.7812 308.295Z" fill="#F7DD74"/>
<path d="M458.526 115.567L444.893 107.894C442.616 106.601 439.693 107.416 438.428 109.721L420.972 140.804C420.775 141.142 420.466 141.395 420.072 141.479L400.874 146.285L400.508 146.369C400.368 146.397 400.199 146.453 400.059 146.51C400.03 146.51 400.002 146.51 399.974 146.538C396.966 147.437 394.408 149.376 392.778 152.102C391.035 154.969 390.557 158.342 391.345 161.602C392.16 164.862 394.184 167.616 397.079 169.33C397.191 169.387 397.304 169.471 397.388 169.527C399.693 170.82 402.279 171.326 404.865 171.045C405.034 171.045 405.202 171.017 405.371 170.988C405.512 170.988 405.652 170.932 405.821 170.904C406.074 170.848 406.327 170.82 406.608 170.764L407.226 170.623L425.835 165.986L435.701 163.541C436.573 163.316 437.36 162.81 437.866 162.051C437.866 162.051 437.978 161.911 438.034 161.826L460.353 122.115C461.646 119.839 460.831 116.916 458.554 115.651L458.526 115.567ZM397.557 168.487C394.886 166.885 393.003 164.356 392.244 161.349C391.485 158.342 391.963 155.194 393.565 152.552C395.055 150.079 397.388 148.28 400.143 147.437L404.697 170.117C402.223 170.37 399.721 169.836 397.557 168.515V168.487ZM437.191 161.264C436.826 161.939 436.123 162.36 435.364 162.557L433.143 163.119L431.513 163.541L425.582 165.03C425.104 162.613 425.469 160.028 426.762 157.723C429.686 152.552 436.263 150.697 441.436 153.592H441.492L437.191 161.292V161.264ZM441.97 152.805H441.913C436.292 149.629 429.124 151.625 425.947 157.245C424.514 159.775 424.148 162.613 424.682 165.255L407.001 169.668L406.355 169.836C406.102 169.892 405.877 169.949 405.624 169.977L401.042 147.184L402.054 146.931L420.016 142.463C420.803 142.266 421.506 141.76 421.9 141.029L433.003 121.272L453.298 132.654L441.97 152.833V152.805ZM453.776 131.923L433.452 120.429L434.549 118.49L454.872 129.984L453.776 131.923ZM455.181 129.282L434.886 117.899L436.376 115.258L456.671 126.64L455.181 129.282ZM457.149 125.937L436.826 114.443L437.922 112.503L458.245 123.998L457.149 125.937ZM459.51 121.553L458.554 123.239L438.259 111.857L439.215 110.143C440.255 108.316 442.56 107.669 444.415 108.681L458.048 116.354C459.875 117.393 460.522 119.698 459.51 121.553Z" fill="#E5B0C1"/>
<path d="M95.3228 903.628C93.58 906.495 93.1022 909.867 93.8892 913.127C94.7044 916.387 96.7283 919.141 99.6236 920.856C99.736 920.912 99.8485 920.996 99.9328 921.053C102.435 922.458 105.302 922.936 108.113 922.486C108.422 922.43 108.731 922.373 109.04 922.317C109.068 922.317 109.125 922.317 109.153 922.317L135.744 915.685L138.246 915.038C139.117 914.813 139.932 914.307 140.41 913.549C140.467 913.464 140.523 913.408 140.579 913.324L162.898 873.612C164.191 871.336 163.376 868.413 161.099 867.148L147.466 859.504C145.161 858.211 142.294 859.026 141.001 861.331L123.235 892.92L104.711 897.529L103.812 897.754L103.109 897.923C99.8484 898.738 97.0937 900.761 95.379 903.656L95.3228 903.628ZM160.762 875.467L154.859 865.546L154.128 864.31H152.694L140.27 864.45L141.788 861.752C142.828 859.926 145.133 859.279 146.988 860.291L160.621 867.963C162.448 869.003 163.095 871.308 162.083 873.163L160.79 875.467H160.762ZM160.031 876.732L148.45 876.873H147.044L146.876 876.591L146.313 875.664L140.214 865.35L152.132 865.237H153.566L153.734 865.546L154.296 866.474L160.199 876.395L160.003 876.732H160.031ZM145.779 876.62L146.201 877.35H145.33L132.905 877.491L139.427 865.912L145.779 876.62ZM153.425 888.508L147.522 878.587L147.072 877.856H147.916L159.497 877.716L153.425 888.536V888.508ZM152.694 889.772L141.113 889.913H139.708L139.539 889.632L138.977 888.704L132.877 878.418L144.824 878.278H146.257L146.426 878.587L146.988 879.514L152.891 889.435L152.694 889.772ZM130.179 909.727C132.877 904.921 138.921 903.15 143.783 905.68L139.764 912.846C139.37 913.521 138.696 913.942 137.937 914.139L135.716 914.701L134.086 915.123L129.026 916.387C128.661 914.167 129.026 911.834 130.207 909.755L130.179 909.727ZM104.824 898.429L122.561 894.016C123.348 893.819 124.051 893.314 124.444 892.583L132.09 878.952L138.443 889.66L139.174 890.868H140.579L152.16 890.7L144.205 904.865C138.892 902.082 132.287 904.021 129.335 909.249C128.042 911.553 127.649 914.139 128.07 916.584L108.872 921.39C108.872 921.39 108.872 921.39 108.843 921.39L104.796 898.429H104.824ZM96.1099 904.106C97.7121 901.436 100.242 899.553 103.25 898.794L103.896 898.625L107.916 921.558C105.189 922.008 102.434 921.474 100.073 920.069C97.4029 918.467 95.5196 915.938 94.7606 912.93C94.0017 909.923 94.4795 906.776 96.0818 904.134L96.1099 904.106Z" fill="#F7DD74"/>
<path d="M27.5488 162.665L13.9158 154.993C11.6389 153.7 8.71552 154.515 7.4506 156.819L-10.0054 187.903C-10.2021 188.24 -10.5113 188.493 -10.9049 188.577L-30.1036 193.383L-30.469 193.467C-30.6096 193.496 -30.7782 193.552 -30.9188 193.608C-30.9469 193.608 -30.975 193.608 -31.0031 193.636C-34.0108 194.535 -36.5688 196.475 -38.1991 199.201C-39.9419 202.067 -40.4198 205.44 -39.6327 208.7C-38.8175 211.96 -36.7937 214.714 -33.8984 216.429C-33.786 216.485 -33.6735 216.569 -33.5892 216.625C-31.2842 217.918 -28.6981 218.424 -26.1121 218.143C-25.9434 218.143 -25.7747 218.115 -25.6061 218.087C-25.4655 218.087 -25.325 218.031 -25.1564 218.003C-24.9034 217.946 -24.6504 217.918 -24.3693 217.862L-23.7509 217.721L-5.14242 213.084L4.72398 210.639C5.59537 210.414 6.38245 209.908 6.88842 209.15C6.88842 209.15 7.00085 209.009 7.05707 208.925L29.376 169.213C30.669 166.937 29.8538 164.014 27.577 162.749L27.5488 162.665ZM-33.4205 215.586C-36.0909 213.984 -37.9742 211.454 -38.7332 208.447C-39.4921 205.44 -39.0143 202.292 -37.4121 199.65C-35.9223 197.177 -33.5892 195.378 -30.8344 194.535L-26.2807 217.216C-28.7543 217.469 -31.2561 216.935 -33.4205 215.614V215.586ZM6.24191 208.363C5.87649 209.037 5.17373 209.459 4.41477 209.656L2.19415 210.218L0.563793 210.639L-5.3673 212.129C-5.84516 209.712 -5.47974 207.126 -4.18671 204.822C-1.26332 199.65 5.31429 197.795 10.4864 200.69H10.5427L6.24191 208.391V208.363ZM10.9924 199.903H10.9362C5.3143 196.727 -1.85363 198.723 -5.03 204.344C-6.46358 206.873 -6.82899 209.712 -6.29491 212.354L-23.9757 216.766L-24.6223 216.935C-24.8753 216.991 -25.1001 217.047 -25.3531 217.075L-29.935 194.282L-28.923 194.029L-10.9611 189.561C-10.174 189.364 -9.47129 188.858 -9.07776 188.128L2.0255 168.37L22.3205 179.752L10.9924 199.931V199.903ZM22.7984 179.022L2.47522 167.527L3.57148 165.588L23.8946 177.083L22.7984 179.022ZM24.2038 176.38L3.90882 164.998L5.39862 162.356L25.6936 173.738L24.2038 176.38ZM26.1996 173.036L5.87648 161.541L6.97274 159.602L27.2959 171.096L26.1996 173.036ZM28.5327 168.651L27.577 170.337L7.28195 158.955L8.23766 157.241C9.27771 155.414 11.5827 154.768 13.4379 155.779L27.071 163.452C28.8981 164.492 29.5446 166.796 28.5327 168.651Z" fill="#E5B0C1"/>
<path d="M64.0327 17.7658C62.2899 20.6324 61.812 24.005 62.5991 27.2651C63.4143 30.5252 65.4382 33.2794 68.3335 34.9938C68.4459 35.05 68.5583 35.1343 68.6427 35.1905C71.0039 36.5114 73.6461 37.0173 76.2884 36.68C76.5976 36.6519 76.9068 36.5957 77.216 36.5395C77.4128 36.4833 77.6377 36.4552 77.8345 36.4271L104.398 29.7945L106.9 29.1762C107.771 28.9513 108.558 28.4455 109.064 27.6866C109.064 27.6866 109.176 27.518 109.233 27.4337L131.552 -12.2778C132.845 -14.5542 132.029 -17.4771 129.753 -18.7418L116.119 -26.3862C113.815 -27.679 110.919 -26.8639 109.654 -24.5594L92.5919 5.82144C92.1422 6.60836 91.4113 7.17044 90.5399 7.39528L71.7347 12.0887C71.7347 12.0887 71.566 12.1449 71.4817 12.1449C68.3334 12.9881 65.6631 14.9835 63.9765 17.7939L64.0327 17.7658ZM97.0894 25.3821C100.069 20.0704 106.618 18.0187 112.072 20.52L108.446 26.984C108.08 27.6585 107.377 28.1082 106.618 28.2768L104.398 28.8389L102.768 29.2605L95.5996 31.0592C95.5996 29.1481 96.0775 27.1808 97.0894 25.4102V25.3821ZM72.6061 12.7913L91.2708 8.126C92.0578 7.92927 92.7606 7.42338 93.1541 6.69267L110.469 -24.1378C111.51 -25.9646 113.815 -26.611 115.67 -25.5992L115.951 -25.4306L110.188 -15.2006L110.919 -14.7791L116.682 -25.009L119.24 -23.5757L113.477 -13.3457L114.208 -12.9242L119.97 -23.1542L122.5 -21.7208L116.738 -11.4908L117.469 -11.0693L123.231 -21.2993L125.93 -19.7816L120.167 -9.55165L120.898 -9.13008L126.661 -19.3601L129.275 -17.8986L123.512 -7.66864L124.243 -7.24709L129.949 -17.3928C131.242 -16.2405 131.58 -14.3013 130.708 -12.7274L112.465 19.705C106.59 16.9508 99.4506 19.1429 96.218 24.9043C95.0936 26.8997 94.5876 29.0919 94.6158 31.2559L77.5253 35.4996C77.3285 35.5559 77.1598 35.5559 76.963 35.6121L72.5217 12.7632L72.6061 12.7913ZM64.8198 18.2436C66.3658 15.6861 68.8113 13.8312 71.6785 13.0443L76.1198 35.8088C73.5618 36.1179 71.0039 35.584 68.7832 34.235C66.1128 32.633 64.2295 30.1036 63.4705 27.0964C62.7116 24.0893 63.1894 20.9416 64.7916 18.2998L64.8198 18.2436Z" fill="#1293CD"/>
<path d="M274.51 17.7377C272.767 20.6044 272.289 23.9769 273.076 27.237C273.892 30.4971 275.915 33.2513 278.811 34.9657C278.923 35.0219 279.036 35.1062 279.12 35.1624C281.622 36.5676 284.489 37.0454 287.3 36.5957C287.609 36.5395 287.918 36.4833 288.227 36.4271C288.255 36.4271 288.312 36.4271 288.34 36.4271L314.931 29.7945L317.433 29.1481C318.304 28.9232 319.12 28.4174 319.598 27.6585C319.654 27.5742 319.71 27.518 319.766 27.4337L342.085 -12.2778C343.378 -14.5542 342.563 -17.4771 340.286 -18.7418L326.653 -26.3862C324.348 -27.679 321.481 -26.8639 320.188 -24.5594L302.423 7.02993L283.899 11.6391L282.999 11.8639L282.296 12.0325C279.036 12.8475 276.281 14.8711 274.566 17.7658L274.51 17.7377ZM339.949 -10.451L334.046 -20.3718L333.315 -21.6084H331.881L319.457 -21.4679L320.975 -24.1659C322.015 -25.9927 324.32 -26.6391 326.175 -25.6273L339.808 -17.9548C341.635 -16.915 342.282 -14.6104 341.27 -12.7555L339.977 -10.451H339.949ZM339.246 -9.15817L327.665 -9.01766H326.259L326.091 -9.2987L325.529 -10.2261L319.429 -20.5404L331.347 -20.6529H332.781L332.95 -20.3437L333.512 -19.4163L339.415 -9.49543L339.218 -9.15817H339.246ZM324.995 -9.27059L325.416 -8.53987H324.545L312.12 -8.39936L318.642 -19.9783L324.995 -9.27059ZM332.64 2.58946L326.737 -7.33138L326.288 -8.0621H327.131L338.712 -8.20263L332.64 2.61755V2.58946ZM331.909 3.88226L320.328 4.02276H318.923L318.754 3.74172L318.192 2.81428L312.092 -7.47191L324.039 -7.61244H325.472L325.641 -7.30329L326.203 -6.37584L332.106 3.54499L331.909 3.88226ZM309.366 23.8364C312.064 19.0305 318.108 17.2599 322.971 19.7893L318.951 26.9559C318.557 27.6304 317.883 28.052 317.124 28.2487L314.903 28.8108L313.273 29.2324L308.213 30.4971C307.848 28.2769 308.213 25.9442 309.394 23.8645L309.366 23.8364ZM284.039 12.5103L301.776 8.09791C302.563 7.90118 303.266 7.39529 303.659 6.66458L311.305 -6.96603L317.658 3.74172L318.389 4.95021H319.794L331.375 4.7816L323.42 18.9462C318.108 16.1639 311.502 18.1031 308.55 23.3305C307.257 25.635 306.864 28.2206 307.286 30.6657L288.087 35.4716C288.087 35.4716 288.087 35.4716 288.059 35.4716L284.011 12.5103H284.039ZM275.325 18.2155C276.927 15.5456 279.457 13.6626 282.465 12.9038L283.111 12.7351L287.131 35.6683C284.404 36.118 281.65 35.584 279.289 34.1788C276.618 32.5768 274.735 30.0474 273.976 27.0402C273.217 24.0331 273.695 20.8854 275.297 18.2436L275.325 18.2155Z" fill="#F7DD74"/>
</svg>
