<svg width="191" height="72" viewBox="0 0 191 72" fill="none" xmlns="http://www.w3.org/2000/svg">
<path d="M5.37188 36.1823L9.69623 57.3775L10.1439 57.673L14.3728 36.6777C14.9666 35.6778 19.0045 36.3643 20.255 36.2241L25.218 57.679L29.6945 36.1853H34.6188L28.071 65.0067L22.0515 64.9679L17.6078 43.9488L12.6925 64.8485C12.1822 65.5261 8.08169 64.9351 7.00433 65.159L0 36.1823H5.37188Z" fill="#EDEEEF"/>
<path d="M144.444 21.8551C136.189 21.9715 142.346 9.42926 138.893 5.76688C137.41 4.19388 134.652 4.08344 133.088 5.57287C132.835 5.81464 131.909 7.20258 131.909 7.37869V21.8551C123.998 21.6641 129.313 10.3874 126.791 6.22953C125.547 4.17597 122.312 4.05657 120.587 5.6057C116.895 8.91289 123.165 21.8193 114.898 21.8551V7.37869C114.898 7.13095 115.645 5.12813 115.833 4.73114C117.731 0.704612 122.559 -0.937043 126.648 0.701628C127.409 1.00608 129.292 2.45969 129.677 2.45969C129.946 2.45969 132.858 0.304646 134.473 0.0927228C138.896 -0.489319 144.447 2.97308 144.447 7.67717V21.8551H144.444Z" fill="#EDEEEF"/>
<path d="M99.3797 62.7472V72.0002H94.6047V43.6443H99.3797C99.4991 43.6443 99.2902 45.7009 99.3827 46.0322C103.382 41.5579 110.422 42.5907 113.266 47.8141C118.572 57.5536 109.712 72.0271 99.3797 62.7472ZM103.179 47.2978C97.2906 48.3902 97.4786 62.195 104.859 61.8339C111.654 61.5026 112.057 45.6472 103.179 47.2978Z" fill="#EDEEEF"/>
<path d="M78.1906 52.0019C79.2919 51.1363 85.5232 43.6443 86.0992 43.6443H91.6203L83.5864 52.7033L92.5156 65.1351H86.9945C86.4394 65.1351 81.554 57.0611 80.42 56.1806C80.1185 56.106 78.1906 57.9745 78.1906 58.1208V65.1351H73.4156V36.1823H77.743C77.7758 36.1823 78.1906 36.5972 78.1906 36.63V52.0019Z" fill="#EDEEEF"/>
<path d="M191 55.8821H175.481C175.83 60.3415 179.853 62.8248 184.04 61.0101C185.959 60.1773 186.055 58.5685 186.225 58.5685H191C188.132 68.687 173.532 67.8185 170.915 57.6133C168.423 47.9007 177.687 39.3223 186.5 44.7129C187.992 45.6263 191 49.3215 191 50.9572V55.8821ZM186.523 52.3003C185.983 45.1248 175.926 45.1845 175.481 52.3003H186.523Z" fill="#EDEEEF"/>
<path d="M145.936 65.1351H141.758C141.638 65.1351 141.34 63.0517 141.456 62.7472L138.171 64.9799C132.82 67.0693 125.493 64.6068 126.555 57.8402C127.301 53.0943 137.057 51.978 140.863 51.7004C141.221 47.6619 137.066 45.1547 133.715 47.3873C132.02 48.5156 132.387 50.5065 132.208 50.5065H127.433C127.678 46.1576 131.199 43.4145 135.347 43.0504C149.362 41.8206 144.668 56.4134 145.936 65.1321V65.1351ZM140.86 54.9897C138.251 55.5299 131.581 55.3866 131.399 59.064C131.196 63.1293 139.502 63.2666 140.657 58.8132C140.991 57.5298 140.842 56.2881 140.86 54.9897Z" fill="#EDEEEF"/>
<path d="M42.9034 43.4235C59.8964 40.964 59.6099 66.5738 44.6254 65.7291C31.4941 64.9888 31.6075 45.0562 42.9034 43.4235ZM43.7897 47.2948C37.7852 48.5484 38.0806 62.1921 45.4699 61.8339C53.0562 61.4638 52.71 45.4322 43.7897 47.2948Z" fill="#EDEEEF"/>
<path d="M99.9049 0.143465C115.943 -2.05635 117.244 21.9715 102.203 22.458C88.1674 22.9117 86.723 1.95227 99.9049 0.143465ZM100.197 4.61474C92.256 5.96388 93.9451 19.4643 103.042 17.9032C111.377 16.4705 109.929 2.96114 100.197 4.61474Z" fill="#EDEEEF"/>
<path d="M76.0299 0.143465C92.1277 -2.06531 93.4288 21.9536 78.3219 22.461C64.4535 22.9266 62.842 1.95227 76.0299 0.143465ZM76.3224 4.61474C68.5004 5.94298 69.9299 19.3657 79.1635 17.9032C87.5407 16.5749 86.1559 2.94323 76.3224 4.61474Z" fill="#EDEEEF"/>
<path d="M53.4203 17.6763H64.3133C64.3998 17.6763 65.6264 18.4076 65.8114 18.5658C66.4322 19.1001 68.1512 22.1536 66.9992 22.1536H49.6898C48.9408 22.1536 47.5471 21.1746 47.1919 20.4731C46.2936 18.7001 46.9442 17.6614 48.0425 16.3272C51.3133 12.3544 56.1212 8.92184 59.3891 4.84158H50.2867C48.7587 4.84158 46.3682 2.02988 46.8547 0.364342H63.7164C64.943 0.364342 66.8888 3.72227 65.6174 4.95202C62.3645 9.05616 56.9657 12.7305 53.865 16.7779C53.6352 17.0794 53.289 17.154 53.4203 17.6763Z" fill="#EDEEEF"/>
<path d="M168.319 51.1064H163.991C163.777 51.1064 162.881 48.5454 161.365 47.7634C152.302 43.0862 149.828 62.9353 160.085 61.5264C161.335 61.3533 162.323 60.7384 163.075 59.7445C163.362 59.3654 164.006 57.673 164.287 57.673H168.614C167.594 64.1501 160.488 67.2513 154.686 64.8874C146.975 61.7473 146.279 49.4409 152.997 44.886C158.47 41.1759 167.883 43.8533 168.319 51.1064Z" fill="#EDEEEF"/>
<path d="M122.956 36.1823V65.1351H118.181V36.63C118.181 36.5972 118.596 36.1823 118.629 36.1823H122.956Z" fill="#EDEEEF"/>
<path d="M63.5672 43.6443L63.7164 46.9306C65.1131 44.4711 67.608 43.3011 70.4313 43.6443V48.4201C68.2377 48.3305 65.4563 48.2052 64.2029 50.399C64.0835 50.605 63.5672 52.0407 63.5672 52.1511V65.1351H58.7922V43.6443H63.5672Z" fill="#EDEEEF"/>
</svg>
